<mxfile host="www.draw.io" modified="2019-12-03T06:22:54.688Z" agent="Mozilla/5.0 (Windows NT 6.1; Win64; x64) AppleWebKit/537.36 (KHTML, like Gecko) Chrome/78.0.3904.108 Safari/537.36" etag="aVhx0ImSxw-zGQsFfOfg" version="12.3.5" type="github" pages="1">
  <diagram id="-Ydo93W916_yShoUZbkA" name="第 1 页">
    <mxGraphModel dx="1038" dy="572" grid="1" gridSize="10" guides="1" tooltips="1" connect="1" arrows="1" fold="1" page="1" pageScale="1" pageWidth="2339" pageHeight="3300" math="0" shadow="0">
      <root>
        <mxCell id="0"/>
        <mxCell id="1" parent="0"/>
        <mxCell id="jY0v7aBU2Wu_RuzIgpPL-1" value="词库管理" style="rounded=1;align=center;fillColor=#F1F2F4;strokeColor=none;html=1;fontColor=#596780;fontSize=12" vertex="1" parent="1">
          <mxGeometry x="80" y="80" width="80" height="33" as="geometry"/>
        </mxCell>
        <mxCell id="jY0v7aBU2Wu_RuzIgpPL-2" value="字体管理" style="rounded=1;align=center;fillColor=#F1F2F4;strokeColor=none;html=1;fontColor=#596780;fontSize=12" vertex="1" parent="1">
          <mxGeometry x="84" y="430" width="80" height="33" as="geometry"/>
        </mxCell>
        <mxCell id="jY0v7aBU2Wu_RuzIgpPL-3" value="图片管理" style="rounded=1;align=center;fillColor=#F1F2F4;strokeColor=none;html=1;fontColor=#596780;fontSize=12" vertex="1" parent="1">
          <mxGeometry x="80" y="740" width="80" height="33" as="geometry"/>
        </mxCell>
        <mxCell id="jY0v7aBU2Wu_RuzIgpPL-8" value="" style="rounded=1;fillColor=#ffffff;strokeColor=#DFE1E5;shadow=1;html=1;arcSize=4" vertex="1" parent="1">
          <mxGeometry x="80" y="130" width="400" height="210" as="geometry"/>
        </mxCell>
        <mxCell id="jY0v7aBU2Wu_RuzIgpPL-9" value="sgim_xx.bin" style="rounded=0;fillColor=#F4F5F7;strokeColor=none;shadow=0;html=1;align=left;fontSize=12;spacingLeft=10;fontColor=#253858;resizeWidth=1" vertex="1" parent="jY0v7aBU2Wu_RuzIgpPL-8">
          <mxGeometry width="400" height="33" relative="1" as="geometry">
            <mxPoint y="6" as="offset"/>
          </mxGeometry>
        </mxCell>
        <mxCell id="jY0v7aBU2Wu_RuzIgpPL-10" value="sgim_xx.bin" style="rounded=0;fillColor=none;strokeColor=none;shadow=0;html=1;align=left;fontSize=12;spacingLeft=10;fontColor=#253858;resizeWidth=1" vertex="1" parent="jY0v7aBU2Wu_RuzIgpPL-8">
          <mxGeometry width="400" height="33" relative="1" as="geometry">
            <mxPoint y="39" as="offset"/>
          </mxGeometry>
        </mxCell>
        <mxCell id="jY0v7aBU2Wu_RuzIgpPL-11" value="sgim_xx.bin" style="rounded=0;fillColor=none;strokeColor=none;shadow=0;html=1;align=left;fontSize=12;spacingLeft=10;fontColor=#253858;resizeWidth=1" vertex="1" parent="jY0v7aBU2Wu_RuzIgpPL-8">
          <mxGeometry width="400" height="33" relative="1" as="geometry">
            <mxPoint y="72" as="offset"/>
          </mxGeometry>
        </mxCell>
        <mxCell id="jY0v7aBU2Wu_RuzIgpPL-12" value="sgim_xx.bin" style="rounded=0;fillColor=none;strokeColor=none;shadow=0;html=1;align=left;fontSize=12;spacingLeft=10;fontColor=#253858;resizeWidth=1" vertex="1" parent="jY0v7aBU2Wu_RuzIgpPL-8">
          <mxGeometry width="400" height="33" relative="1" as="geometry">
            <mxPoint y="105" as="offset"/>
          </mxGeometry>
        </mxCell>
        <mxCell id="jY0v7aBU2Wu_RuzIgpPL-13" value="添加" style="rounded=1;fillColor=#0057D8;align=center;strokeColor=none;html=1;fontColor=#ffffff;fontSize=12" vertex="1" parent="1">
          <mxGeometry x="194" y="80" width="86" height="33" as="geometry"/>
        </mxCell>
        <mxCell id="jY0v7aBU2Wu_RuzIgpPL-16" value="编辑" style="rounded=1;fillColor=#0057D8;align=center;strokeColor=none;html=1;fontColor=#ffffff;fontSize=12" vertex="1" parent="1">
          <mxGeometry x="310" y="80" width="86" height="33" as="geometry"/>
        </mxCell>
        <mxCell id="jY0v7aBU2Wu_RuzIgpPL-53" value="" style="rounded=1;fillColor=#ffffff;strokeColor=#DFE1E5;shadow=1;html=1;arcSize=4" vertex="1" parent="1">
          <mxGeometry x="80" y="480" width="400" height="210" as="geometry"/>
        </mxCell>
        <mxCell id="jY0v7aBU2Wu_RuzIgpPL-54" value="hanyu-fuhao-Regular.ttf" style="rounded=0;fillColor=#F4F5F7;strokeColor=none;shadow=0;html=1;align=left;fontSize=12;spacingLeft=10;fontColor=#253858;resizeWidth=1" vertex="1" parent="jY0v7aBU2Wu_RuzIgpPL-53">
          <mxGeometry width="400" height="33" relative="1" as="geometry">
            <mxPoint y="6" as="offset"/>
          </mxGeometry>
        </mxCell>
        <mxCell id="jY0v7aBU2Wu_RuzIgpPL-55" value="sogou_foreign_switch_98.ttf" style="rounded=0;fillColor=none;strokeColor=none;shadow=0;html=1;align=left;fontSize=12;spacingLeft=10;fontColor=#253858;resizeWidth=1" vertex="1" parent="jY0v7aBU2Wu_RuzIgpPL-53">
          <mxGeometry width="400" height="33" relative="1" as="geometry">
            <mxPoint y="39" as="offset"/>
          </mxGeometry>
        </mxCell>
        <mxCell id="jY0v7aBU2Wu_RuzIgpPL-56" value="sogouhan-Regular.ttf" style="rounded=0;fillColor=none;strokeColor=none;shadow=0;html=1;align=left;fontSize=12;spacingLeft=10;fontColor=#253858;resizeWidth=1" vertex="1" parent="jY0v7aBU2Wu_RuzIgpPL-53">
          <mxGeometry width="400" height="33" relative="1" as="geometry">
            <mxPoint y="72" as="offset"/>
          </mxGeometry>
        </mxCell>
        <mxCell id="jY0v7aBU2Wu_RuzIgpPL-58" value="添加" style="rounded=1;fillColor=#0057D8;align=center;strokeColor=none;html=1;fontColor=#ffffff;fontSize=12" vertex="1" parent="1">
          <mxGeometry x="194" y="430" width="86" height="33" as="geometry"/>
        </mxCell>
        <mxCell id="jY0v7aBU2Wu_RuzIgpPL-59" value="编辑" style="rounded=1;fillColor=#0057D8;align=center;strokeColor=none;html=1;fontColor=#ffffff;fontSize=12" vertex="1" parent="1">
          <mxGeometry x="310" y="430" width="86" height="33" as="geometry"/>
        </mxCell>
        <mxCell id="jY0v7aBU2Wu_RuzIgpPL-60" value="" style="rounded=1;fillColor=#ffffff;strokeColor=#DFE1E5;shadow=1;html=1;arcSize=4" vertex="1" parent="1">
          <mxGeometry x="557" y="480" width="400" height="210" as="geometry"/>
        </mxCell>
        <mxCell id="jY0v7aBU2Wu_RuzIgpPL-61" value="&amp;nbsp; &amp;nbsp; &amp;nbsp;hanyu-fuhao-Regular.ttf" style="rounded=0;fillColor=#F4F5F7;strokeColor=none;shadow=0;html=1;align=left;fontSize=12;spacingLeft=10;fontColor=#253858;resizeWidth=1" vertex="1" parent="jY0v7aBU2Wu_RuzIgpPL-60">
          <mxGeometry width="400" height="33" relative="1" as="geometry">
            <mxPoint y="6" as="offset"/>
          </mxGeometry>
        </mxCell>
        <mxCell id="jY0v7aBU2Wu_RuzIgpPL-62" value="&amp;nbsp; &amp;nbsp; &amp;nbsp;sogou_foreign_switch_98.ttf" style="rounded=0;fillColor=none;strokeColor=none;shadow=0;html=1;align=left;fontSize=12;spacingLeft=10;fontColor=#253858;resizeWidth=1" vertex="1" parent="jY0v7aBU2Wu_RuzIgpPL-60">
          <mxGeometry width="400" height="33" relative="1" as="geometry">
            <mxPoint y="39" as="offset"/>
          </mxGeometry>
        </mxCell>
        <mxCell id="jY0v7aBU2Wu_RuzIgpPL-63" value="&amp;nbsp; &amp;nbsp; &amp;nbsp;sogouhan-Regular.ttf" style="rounded=0;fillColor=none;strokeColor=none;shadow=0;html=1;align=left;fontSize=12;spacingLeft=10;fontColor=#253858;resizeWidth=1" vertex="1" parent="jY0v7aBU2Wu_RuzIgpPL-60">
          <mxGeometry width="400" height="33" relative="1" as="geometry">
            <mxPoint y="72" as="offset"/>
          </mxGeometry>
        </mxCell>
        <mxCell id="jY0v7aBU2Wu_RuzIgpPL-64" value="&amp;nbsp; &amp;nbsp; &amp;nbsp;sogouhan-Regular.ttf" style="rounded=0;fillColor=none;strokeColor=none;shadow=0;html=1;align=left;fontSize=12;spacingLeft=10;fontColor=#253858;resizeWidth=1" vertex="1" parent="jY0v7aBU2Wu_RuzIgpPL-60">
          <mxGeometry width="400" height="33" relative="1" as="geometry">
            <mxPoint y="105" as="offset"/>
          </mxGeometry>
        </mxCell>
        <mxCell id="jY0v7aBU2Wu_RuzIgpPL-65" value="" style="html=1;shadow=0;dashed=0;shape=mxgraph.atlassian.close;fillColor=#BA3200;strokeColor=none;html=1" vertex="1" parent="jY0v7aBU2Wu_RuzIgpPL-60">
          <mxGeometry x="10" y="18" width="14" height="14" as="geometry"/>
        </mxCell>
        <mxCell id="jY0v7aBU2Wu_RuzIgpPL-66" value="" style="html=1;shadow=0;dashed=0;shape=mxgraph.atlassian.close;fillColor=#BA3200;strokeColor=none;html=1" vertex="1" parent="jY0v7aBU2Wu_RuzIgpPL-60">
          <mxGeometry x="10" y="120" width="14" height="14" as="geometry"/>
        </mxCell>
        <mxCell id="jY0v7aBU2Wu_RuzIgpPL-67" value="" style="html=1;shadow=0;dashed=0;shape=mxgraph.atlassian.close;fillColor=#BA3200;strokeColor=none;html=1;rotation=-10;" vertex="1" parent="jY0v7aBU2Wu_RuzIgpPL-60">
          <mxGeometry x="10" y="83" width="14" height="14" as="geometry"/>
        </mxCell>
        <mxCell id="jY0v7aBU2Wu_RuzIgpPL-68" value="" style="html=1;shadow=0;dashed=0;shape=mxgraph.atlassian.close;fillColor=#BA3200;strokeColor=none;html=1" vertex="1" parent="jY0v7aBU2Wu_RuzIgpPL-60">
          <mxGeometry x="10" y="50" width="14" height="14" as="geometry"/>
        </mxCell>
        <mxCell id="jY0v7aBU2Wu_RuzIgpPL-74" value="添加" style="rounded=1;fillColor=#0057D8;align=center;strokeColor=none;html=1;fontColor=#ffffff;fontSize=12" vertex="1" parent="1">
          <mxGeometry x="194" y="740" width="86" height="33" as="geometry"/>
        </mxCell>
        <mxCell id="jY0v7aBU2Wu_RuzIgpPL-75" value="编辑" style="rounded=1;fillColor=#0057D8;align=center;strokeColor=none;html=1;fontColor=#ffffff;fontSize=12" vertex="1" parent="1">
          <mxGeometry x="310" y="740" width="86" height="33" as="geometry"/>
        </mxCell>
        <mxCell id="jY0v7aBU2Wu_RuzIgpPL-86" value="" style="rounded=1;fillColor=#ffffff;strokeColor=#DFE1E5;shadow=1;html=1;arcSize=4" vertex="1" parent="1">
          <mxGeometry x="80" y="790" width="400" height="210" as="geometry"/>
        </mxCell>
        <mxCell id="jY0v7aBU2Wu_RuzIgpPL-87" value="ime_switch_language_korean.png" style="rounded=0;fillColor=#F4F5F7;strokeColor=none;shadow=0;html=1;align=left;fontSize=12;spacingLeft=10;fontColor=#253858;resizeWidth=1" vertex="1" parent="jY0v7aBU2Wu_RuzIgpPL-86">
          <mxGeometry width="400" height="33" relative="1" as="geometry">
            <mxPoint y="6" as="offset"/>
          </mxGeometry>
        </mxCell>
        <mxCell id="jY0v7aBU2Wu_RuzIgpPL-88" value="ime_switch_language_korean_selected.png" style="rounded=0;fillColor=none;strokeColor=none;shadow=0;html=1;align=left;fontSize=12;spacingLeft=10;fontColor=#253858;resizeWidth=1" vertex="1" parent="jY0v7aBU2Wu_RuzIgpPL-86">
          <mxGeometry width="400" height="33" relative="1" as="geometry">
            <mxPoint y="39" as="offset"/>
          </mxGeometry>
        </mxCell>
        <mxCell id="jY0v7aBU2Wu_RuzIgpPL-89" value="korean_soduku_arrow.png" style="rounded=0;fillColor=none;strokeColor=none;shadow=0;html=1;align=left;fontSize=12;spacingLeft=10;fontColor=#253858;resizeWidth=1" vertex="1" parent="jY0v7aBU2Wu_RuzIgpPL-86">
          <mxGeometry width="400" height="33" relative="1" as="geometry">
            <mxPoint y="72" as="offset"/>
          </mxGeometry>
        </mxCell>
        <mxCell id="jY0v7aBU2Wu_RuzIgpPL-90" value="korean_soduku_arrow_p.png" style="rounded=0;fillColor=none;strokeColor=none;shadow=0;html=1;align=left;fontSize=12;spacingLeft=10;fontColor=#253858;resizeWidth=1" vertex="1" parent="jY0v7aBU2Wu_RuzIgpPL-86">
          <mxGeometry width="400" height="33" relative="1" as="geometry">
            <mxPoint y="105" as="offset"/>
          </mxGeometry>
        </mxCell>
        <mxCell id="jY0v7aBU2Wu_RuzIgpPL-91" value="" style="rounded=1;fillColor=#ffffff;strokeColor=#DFE1E5;shadow=1;html=1;arcSize=4" vertex="1" parent="1">
          <mxGeometry x="560" y="790" width="400" height="210" as="geometry"/>
        </mxCell>
        <mxCell id="jY0v7aBU2Wu_RuzIgpPL-92" value="&amp;nbsp; &amp;nbsp; &amp;nbsp;ime_switch_language_korean.png" style="rounded=0;fillColor=#F4F5F7;strokeColor=none;shadow=0;html=1;align=left;fontSize=12;spacingLeft=10;fontColor=#253858;resizeWidth=1" vertex="1" parent="jY0v7aBU2Wu_RuzIgpPL-91">
          <mxGeometry width="400" height="33" relative="1" as="geometry">
            <mxPoint y="6" as="offset"/>
          </mxGeometry>
        </mxCell>
        <mxCell id="jY0v7aBU2Wu_RuzIgpPL-93" value="&amp;nbsp; &amp;nbsp; &amp;nbsp;ime_switch_language_korean_selected.png" style="rounded=0;fillColor=none;strokeColor=none;shadow=0;html=1;align=left;fontSize=12;spacingLeft=10;fontColor=#253858;resizeWidth=1" vertex="1" parent="jY0v7aBU2Wu_RuzIgpPL-91">
          <mxGeometry width="400" height="33" relative="1" as="geometry">
            <mxPoint y="39" as="offset"/>
          </mxGeometry>
        </mxCell>
        <mxCell id="jY0v7aBU2Wu_RuzIgpPL-94" value="&amp;nbsp; &amp;nbsp; &amp;nbsp;korean_soduku_arrow.png" style="rounded=0;fillColor=none;strokeColor=none;shadow=0;html=1;align=left;fontSize=12;spacingLeft=10;fontColor=#253858;resizeWidth=1" vertex="1" parent="jY0v7aBU2Wu_RuzIgpPL-91">
          <mxGeometry width="400" height="33" relative="1" as="geometry">
            <mxPoint y="72" as="offset"/>
          </mxGeometry>
        </mxCell>
        <mxCell id="jY0v7aBU2Wu_RuzIgpPL-95" value="&amp;nbsp; &amp;nbsp; &amp;nbsp;korean_soduku_arrow_p.png" style="rounded=0;fillColor=none;strokeColor=none;shadow=0;html=1;align=left;fontSize=12;spacingLeft=10;fontColor=#253858;resizeWidth=1" vertex="1" parent="jY0v7aBU2Wu_RuzIgpPL-91">
          <mxGeometry width="400" height="33" relative="1" as="geometry">
            <mxPoint y="105" as="offset"/>
          </mxGeometry>
        </mxCell>
        <mxCell id="jY0v7aBU2Wu_RuzIgpPL-96" value="" style="html=1;shadow=0;dashed=0;shape=mxgraph.atlassian.close;fillColor=#BA3200;strokeColor=none;html=1" vertex="1" parent="jY0v7aBU2Wu_RuzIgpPL-91">
          <mxGeometry x="10" y="20" width="14" height="14" as="geometry"/>
        </mxCell>
        <mxCell id="jY0v7aBU2Wu_RuzIgpPL-99" value="" style="html=1;shadow=0;dashed=0;shape=mxgraph.atlassian.close;fillColor=#BA3200;strokeColor=none;html=1" vertex="1" parent="jY0v7aBU2Wu_RuzIgpPL-91">
          <mxGeometry x="10" y="120" width="14" height="14" as="geometry"/>
        </mxCell>
        <mxCell id="jY0v7aBU2Wu_RuzIgpPL-98" value="" style="html=1;shadow=0;dashed=0;shape=mxgraph.atlassian.close;fillColor=#BA3200;strokeColor=none;html=1" vertex="1" parent="jY0v7aBU2Wu_RuzIgpPL-91">
          <mxGeometry x="10" y="80" width="14" height="14" as="geometry"/>
        </mxCell>
        <mxCell id="jY0v7aBU2Wu_RuzIgpPL-97" value="" style="html=1;shadow=0;dashed=0;shape=mxgraph.atlassian.close;fillColor=#BA3200;strokeColor=none;html=1" vertex="1" parent="jY0v7aBU2Wu_RuzIgpPL-91">
          <mxGeometry x="10" y="50" width="14" height="14" as="geometry"/>
        </mxCell>
        <mxCell id="jY0v7aBU2Wu_RuzIgpPL-100" value="" style="rounded=1;fillColor=#ffffff;strokeColor=#DFE1E5;shadow=1;html=1;arcSize=4" vertex="1" parent="1">
          <mxGeometry x="560" y="130" width="400" height="210" as="geometry"/>
        </mxCell>
        <mxCell id="jY0v7aBU2Wu_RuzIgpPL-101" value="&amp;nbsp; &amp;nbsp; &amp;nbsp;sgim_xx.bin" style="rounded=0;fillColor=#F4F5F7;strokeColor=none;shadow=0;html=1;align=left;fontSize=12;spacingLeft=10;fontColor=#253858;resizeWidth=1" vertex="1" parent="jY0v7aBU2Wu_RuzIgpPL-100">
          <mxGeometry width="400" height="33" relative="1" as="geometry">
            <mxPoint y="6" as="offset"/>
          </mxGeometry>
        </mxCell>
        <mxCell id="jY0v7aBU2Wu_RuzIgpPL-102" value="&amp;nbsp; &amp;nbsp; &amp;nbsp;sgim_xx.bin" style="rounded=0;fillColor=none;strokeColor=none;shadow=0;html=1;align=left;fontSize=12;spacingLeft=10;fontColor=#253858;resizeWidth=1" vertex="1" parent="jY0v7aBU2Wu_RuzIgpPL-100">
          <mxGeometry width="400" height="33" relative="1" as="geometry">
            <mxPoint y="39" as="offset"/>
          </mxGeometry>
        </mxCell>
        <mxCell id="jY0v7aBU2Wu_RuzIgpPL-103" value="&amp;nbsp; &amp;nbsp; &amp;nbsp;sgim_xx.bin" style="rounded=0;fillColor=none;strokeColor=none;shadow=0;html=1;align=left;fontSize=12;spacingLeft=10;fontColor=#253858;resizeWidth=1" vertex="1" parent="jY0v7aBU2Wu_RuzIgpPL-100">
          <mxGeometry width="400" height="33" relative="1" as="geometry">
            <mxPoint y="72" as="offset"/>
          </mxGeometry>
        </mxCell>
        <mxCell id="jY0v7aBU2Wu_RuzIgpPL-104" value="&amp;nbsp; &amp;nbsp; &amp;nbsp;sgim_xx.bin" style="rounded=0;fillColor=none;strokeColor=none;shadow=0;html=1;align=left;fontSize=12;spacingLeft=10;fontColor=#253858;resizeWidth=1" vertex="1" parent="jY0v7aBU2Wu_RuzIgpPL-100">
          <mxGeometry width="400" height="33" relative="1" as="geometry">
            <mxPoint y="105" as="offset"/>
          </mxGeometry>
        </mxCell>
        <mxCell id="jY0v7aBU2Wu_RuzIgpPL-105" value="" style="html=1;shadow=0;dashed=0;shape=mxgraph.atlassian.close;fillColor=#BA3200;strokeColor=none;html=1" vertex="1" parent="jY0v7aBU2Wu_RuzIgpPL-100">
          <mxGeometry x="10" y="18" width="14" height="14" as="geometry"/>
        </mxCell>
        <mxCell id="jY0v7aBU2Wu_RuzIgpPL-106" value="" style="html=1;shadow=0;dashed=0;shape=mxgraph.atlassian.close;fillColor=#BA3200;strokeColor=none;html=1" vertex="1" parent="jY0v7aBU2Wu_RuzIgpPL-100">
          <mxGeometry x="10" y="116" width="14" height="14" as="geometry"/>
        </mxCell>
        <mxCell id="jY0v7aBU2Wu_RuzIgpPL-107" value="" style="html=1;shadow=0;dashed=0;shape=mxgraph.atlassian.close;fillColor=#BA3200;strokeColor=none;html=1;rotation=-10;" vertex="1" parent="jY0v7aBU2Wu_RuzIgpPL-100">
          <mxGeometry x="10" y="83" width="14" height="14" as="geometry"/>
        </mxCell>
        <mxCell id="jY0v7aBU2Wu_RuzIgpPL-108" value="" style="html=1;shadow=0;dashed=0;shape=mxgraph.atlassian.close;fillColor=#BA3200;strokeColor=none;html=1" vertex="1" parent="jY0v7aBU2Wu_RuzIgpPL-100">
          <mxGeometry x="10" y="50" width="14" height="14" as="geometry"/>
        </mxCell>
      </root>
    </mxGraphModel>
  </diagram>
</mxfile>
